# xmcd
#
# Track frame offsets:
#	150
#	91300
#	138950
#	186057
#	203675
#	230112
#	251425
#
# Disc length: 3644 seconds
#
# Revision: 1
# Processed by: cddbd v1.5.1PL0 Copyright (c) Steve Scherf et al.
# Submitted via: CDex 1.50Beta5
#
DISCID=580e3a07
DTITLE=ショパン - ショパン:ピアノ協奏曲第1番 即興曲全曲《ショパン名盤1200》
DYEAR=1900
DGENRE=Classical
TTITLE0=第1楽章
TTITLE1=第2楽章
TTITLE2=第3楽章 ロンド
TTITLE3=即興曲第1番変イ長調op.29
TTITLE4=即興曲第2番嬰ヘ長調op.36
TTITLE5=即興曲第3番変ト長調op.51
TTITLE6=即興曲第4番嬰ハ短調op.66「幻想即興曲」
EXTD=
EXTT0=
EXTT1=
EXTT2=
EXTT3=
EXTT4=
EXTT5=
EXTT6=
PLAYORDER=
